# xmcd
#
# Track frame offsets: 
#        150
#        21045
#        40294
#        56917
#        75501
#        91854
#        108490
#        122455
#        137366
#        152099
#        166783
#        181928
#        201306
#        219718
#        235688
#        251470
#        265940
#        283560
#        297746
#        315820
#
# Disc length: 4414 seconds
#
# Revision: 9
# Processed by: cddbd v1.5.2PL0 Copyright (c) Steve Scherf et al.
# Submitted via: ExactAudioCopyFreeDBPlugin 1.0
#
DISCID=0f113c14
DTITLE=Various Artist - Bravo Hits 32
DYEAR=2001
DGENRE=Pop
TTITLE0=Sugababes - Overload
TTITLE1=Robbie Williams - Supreme
TTITLE2=Destiny's Child - Independent Woman Part 1
TTITLE3=Wyclef Jean - 911 (feat. Mary J. Blige)
TTITLE4=Max - Bestzeit
TTITLE5=Debelah Morgan - Dance With Me
TTITLE6=Nelly - Country Grammar (Hot ...)
TTITLE7=Baha Men - Who Let The Dogs Out
TTITLE8=Billy More - Up and Down (Don't Fall In Love With Me)
TTITLE9=A*Teens - Upside Down
TTITLE10=Samantha Mumba - Gotta Tell You
TTITLE11=LL Cool J - You And Me (feat. Kelly Price)
TTITLE12=Milk and Sugar - Higher and Higher
TTITLE13=No Angels - Daylight In Your Eyes
TTITLE14=Melanie Thornton - Love How You Love Me
TTITLE15=Sweetbox - For The Lonely
TTITLE16=Barcode Brothers - Dooh Dooh
TTITLE17=Mabel - Don't Let Me Down
TTITLE18=Spooks - Things I've Seen
TTITLE19=Spike - Never Gonna Give You Up
EXTD=
EXTT0=
EXTT1=
EXTT2=
EXTT3=
EXTT4=
EXTT5=
EXTT6=
EXTT7=
EXTT8=
EXTT9=
EXTT10=
EXTT11=
EXTT12=
EXTT13=
EXTT14=
EXTT15=
EXTT16=
EXTT17=
EXTT18=
EXTT19=
PLAYORDER=
